<?xml version="1.0" standalone="no"?>
<!DOCTYPE svg PUBLIC "-//W3C//DTD SVG 20010904//EN"
 "http://www.w3.org/TR/2001/REC-SVG-20010904/DTD/svg10.dtd">
<svg version="1.0" xmlns="http://www.w3.org/2000/svg"
 width="256.000000pt" height="256.000000pt" viewBox="0 0 256.000000 256.000000"
 preserveAspectRatio="xMidYMid meet">
<metadata>
Created by potrace 1.14, written by Peter Selinger 2001-2017
</metadata>
<g transform="translate(0.000000,256.000000) scale(0.100000,-0.100000)"
fill="#000000" stroke="none">
<path d="M1168 2420 c-38 -10 -68 -16 -68 -14 0 2 -26 -9 -57 -25 -179 -91
-288 -277 -285 -486 0 -46 7 -110 12 -110 1 0 4 -11 6 -25 3 -14 9 -27 14 -28
6 -2 8 -8 4 -13 -8 -14 49 -108 98 -160 46 -48 110 -99 126 -99 5 0 15 -7 22
-15 7 -9 15 -13 18 -10 3 3 15 -1 26 -8 80 -50 300 -57 388 -11 40 21 78 27
78 13 0 -6 -9 -13 -20 -16 -11 -3 -20 -9 -20 -14 0 -5 -5 -9 -11 -9 -14 0 -85
-71 -82 -82 2 -4 -3 -7 -10 -5 -6 1 -11 -4 -10 -10 2 -7 -1 -13 -6 -13 -10 0
-70 -111 -77 -142 -3 -13 -8 -34 -11 -48 -8 -35 -9 -158 -1 -205 8 -47 34
-128 54 -167 20 -39 0 -74 -100 -173 -94 -93 -184 -143 -310 -170 -98 -22
-217 -16 -302 15 -32 12 -69 23 -81 23 -11 1 -19 5 -17 9 3 4 -4 12 -15 17
-32 17 -35 13 -10 -14 13 -13 30 -25 37 -25 6 0 12 -4 12 -9 0 -9 135 -101
149 -101 5 0 14 -7 21 -15 7 -9 19 -14 27 -11 7 3 13 2 13 -2 0 -7 97 -53 124
-59 6 -1 45 -11 86 -23 41 -11 95 -23 120 -26 25 -3 61 -10 80 -15 39 -12 157
-7 235 9 28 6 66 13 85 17 73 12 268 83 290 105 3 3 11 6 19 8 25 5 200 126
195 134 -3 4 0 8 5 8 9 0 117 104 147 142 113 143 191 303 196 403 2 36 -13
160 -20 165 -4 3 -8 12 -10 20 -6 31 -25 70 -34 70 -5 0 -7 4 -4 9 6 9 -67
109 -89 123 -6 3 -26 21 -45 38 -39 35 -157 94 -210 105 -70 15 -185 14 -240
-1 -30 -8 -63 -17 -72 -19 -9 -2 -28 -11 -43 -21 -36 -24 -46 -6 -10 20 62 45
123 108 146 151 23 44 26 45 71 45 136 0 280 -62 382 -165 69 -70 166 -205
166 -231 0 -8 5 -14 10 -14 6 0 9 -3 9 -7 -1 -5 0 -11 1 -15 6 -18 7 -25 15
-75 4 -29 11 -53 16 -53 5 0 9 3 10 8 0 4 4 21 7 37 14 61 3 308 -14 336 -2 3
-6 19 -8 36 -21 116 -91 274 -178 400 -52 75 -224 263 -240 263 -5 0 -18 8
-29 19 -11 10 -37 27 -57 37 -20 11 -39 22 -42 25 -24 30 -267 122 -355 134
-48 7 -86 16 -110 25 -40 15 -142 10 -217 -10z"/>
<path d="M890 2361 c-8 -6 -18 -7 -22 -5 -4 3 -8 0 -8 -5 0 -6 -5 -11 -11 -11
-24 0 -178 -85 -246 -136 -79 -59 -176 -152 -220 -211 -15 -21 -30 -40 -33
-43 -29 -28 -141 -247 -156 -305 -1 -5 -9 -37 -18 -70 -17 -61 -20 -75 -33
-155 -15 -93 -4 -235 31 -415 14 -73 100 -281 126 -305 3 -3 17 -21 31 -40 49
-66 104 -111 177 -147 40 -19 81 -36 90 -38 9 -2 17 -4 17 -5 0 -6 64 -13 135
-14 155 -1 276 59 397 198 92 105 137 308 101 456 -17 67 -64 166 -94 197 -7
7 -21 23 -31 35 -62 78 -213 146 -358 163 -55 6 -72 21 -105 93 -28 62 -38
132 -35 241 3 98 26 184 78 286 30 60 114 162 170 206 44 35 55 53 17 30z"/>
<path d="M2390 1090 c0 -5 5 -10 10 -10 6 0 10 5 10 10 0 6 -4 10 -10 10 -5 0
-10 -4 -10 -10z"/>
</g>
</svg>
